<?xml version="1.0" encoding="UTF-8"?>
<svg id="Layer_2" data-name="Layer 2" xmlns="http://www.w3.org/2000/svg" viewBox="0 0 144.36 57.58">
  <defs>
    <style>
      .cls-1 {
        letter-spacing: .42em;
      }

      .cls-2 {
        letter-spacing: .46em;
      }

      .cls-3 {
        letter-spacing: .46em;
      }

      .cls-4 {
        font-family: Larsseit-Medium, Larsseit;
        font-size: 11.39px;
        font-weight: 500;
      }

      .cls-4, .cls-5 {
        fill: #FFF;
      }

      .cls-5 {
        stroke-width: 0px;
      }
    </style>
  </defs>
  <g id="Layer_1-2" data-name="Layer 1">
    <g>
      <g>
        <g>
          <path class="cls-5" d="M70.45,22.89l.57-10.69h1.92l3.38,7.41.26.66.29-.66,3.39-7.41h1.93l.57,10.69h-1.71l-.57-7.42-.31.86-2.88,6.55h-1.42l-2.87-6.55-.29-.86-.57,7.42h-1.71Z"/>
          <path class="cls-5" d="M85.43,17.53c0-1.59.51-2.91,1.54-3.95,1.03-1.05,2.35-1.57,3.96-1.57s2.92.52,3.94,1.57c1.02,1.04,1.53,2.35,1.53,3.95s-.51,2.93-1.53,3.99c-1.01,1.05-2.33,1.57-3.94,1.57s-2.93-.52-3.96-1.57c-1.03-1.06-1.54-2.39-1.54-3.99ZM87.23,17.53c0,1.15.34,2.09,1.03,2.84.69.75,1.58,1.12,2.68,1.12s1.99-.37,2.68-1.12c.68-.74,1.02-1.69,1.02-2.84s-.34-2.08-1.02-2.81c-.68-.74-1.57-1.11-2.68-1.11s-2,.37-2.68,1.11c-.69.73-1.03,1.67-1.03,2.81Z"/>
          <path class="cls-5" d="M99.03,22.89v-10.69h1.68l4.87,7.1.46.72v-7.82h1.71v10.69h-1.69l-4.9-7.11-.41-.67v7.78h-1.71Z"/>
          <path class="cls-5" d="M111.6,22.89v-10.69h1.71v5.75l4.21-5.75h2.11l-3.48,4.75,4.31,5.94h-2.06l-3.41-4.56-1.68,2.13v2.43h-1.71Z"/>
          <path class="cls-5" d="M127.43,19.68h1.71c.02.62.2,1.09.53,1.42s.79.49,1.39.49c.54,0,.95-.14,1.26-.41.3-.28.45-.65.45-1.12,0-.4-.16-.73-.47-.99-.31-.26-.86-.52-1.63-.78-1-.34-1.75-.76-2.25-1.24-.47-.48-.71-1.14-.71-1.98,0-.9.29-1.63.86-2.19.58-.58,1.36-.87,2.34-.87s1.76.27,2.33.8c.57.53.87,1.3.9,2.3h-1.74c0-.49-.15-.88-.43-1.16s-.65-.42-1.11-.42-.81.12-1.06.37c-.26.25-.39.59-.39,1.03s.14.76.43.99c.29.23.81.49,1.58.78,1.11.38,1.9.82,2.35,1.31.47.47.7,1.11.7,1.91,0,.98-.32,1.75-.96,2.31-.64.56-1.46.84-2.47.84-1.13,0-2.01-.3-2.64-.91-.63-.61-.95-1.44-.97-2.49Z"/>
          <path class="cls-5" d="M70.45,38.15l.57-10.69h1.92l3.38,7.41.26.66.29-.66,3.39-7.41h1.93l.57,10.69h-1.71l-.57-7.42-.31.86-2.88,6.55h-1.42l-2.87-6.55-.29-.86-.57,7.42h-1.71Z"/>
          <path class="cls-5" d="M86,38.15v-10.69h5.99v1.6h-4.29v2.78h3.74v1.6h-3.74v3.1h4.29v1.6h-5.99Z"/>
          <path class="cls-5" d="M95.36,38.15v-10.69h3.9c1.65,0,2.97.49,3.96,1.48,1,.98,1.5,2.27,1.5,3.86s-.5,2.89-1.5,3.88c-.99.98-2.31,1.47-3.96,1.47h-3.9ZM97.07,36.55h2.2c1.16,0,2.07-.33,2.73-.99.66-.66.98-1.58.98-2.75s-.33-2.1-.98-2.75c-.65-.66-1.56-.99-2.73-.99h-2.2v7.48Z"/>
          <path class="cls-5" d="M107.74,38.15v-10.69h1.71v10.69h-1.71Z"/>
          <path class="cls-5" d="M112.69,32.81c0-1.58.5-2.91,1.5-3.96.99-1.05,2.26-1.57,3.82-1.57,1.26,0,2.3.31,3.13.92.83.61,1.39,1.47,1.7,2.58h-1.89c-.45-1.26-1.43-1.89-2.93-1.89-1.04,0-1.88.37-2.53,1.11-.66.73-.98,1.67-.98,2.82s.33,2.08.98,2.82c.66.75,1.51,1.12,2.56,1.12.76,0,1.4-.17,1.9-.52.5-.35.87-.83,1.08-1.45h1.83c-.31,1.15-.87,2.03-1.69,2.65-.82.62-1.86.93-3.13.93-1.56,0-2.84-.52-3.85-1.57-1-1.06-1.5-2.38-1.5-3.97Z"/>
          <path class="cls-5" d="M124.85,38.15l4.23-10.69h1.83l4.23,10.69h-1.88l-1.02-2.62h-4.5l-1.01,2.62h-1.88ZM128.3,34h3.38l-1.51-3.82-.2-.58-.2.58-1.48,3.82Z"/>
          <path class="cls-5" d="M138.03,38.15v-10.69h1.71v9.08h4.62v1.6h-6.33Z"/>
          <path class="cls-5" d="M122.47,13.66c0-.16.01-.31.03-.46.02-.17.06-.34.13-.5.07-.17.15-.32.28-.45.12-.12.27-.19.43-.22.35-.06.66.02.93.24.16.13.27.29.36.47.08.16.12.32.16.49.04.15.06.31.06.47,0,.15-.03.3-.08.44-.07.16-.17.3-.3.41-.14.13-.29.22-.46.3-.11.05-.23.09-.34.11-.19.04-.38.03-.56-.05-.2-.09-.36-.23-.46-.42-.07-.13-.11-.27-.14-.42-.03-.14-.04-.28-.04-.41Z"/>
        </g>
        <g>
          <polygon class="cls-5" points="6.36 0 .87 38.19 3.2 38.19 8.69 0 6.36 0"/>
          <polygon class="cls-5" points="15.97 18.64 25.89 38.19 28.47 38.19 16.53 14.68 15.97 18.64"/>
          <polygon class="cls-5" points="54.3 0 51.58 0 33.6 35.42 15.62 0 12.9 0 7.41 38.19 9.73 38.19 14.74 3.36 32.43 38.19 34.77 38.19 52.45 3.36 57.47 38.19 59.79 38.19 54.3 0"/>
          <polygon class="cls-5" points="48.16 19.3 50.93 38.19 53.25 38.19 49.96 15.75 48.16 19.3"/>
          <polygon class="cls-5" points="47.62 0 45.04 0 32.23 25.24 33.52 27.78 47.62 0"/>
        </g>
      </g>
      <text class="cls-4" transform="translate(0 54.3)"><tspan class="cls-2" x="0" y="0">DR </tspan><tspan class="cls-1" x="32.75" y="0">K</tspan><tspan class="cls-3" x="45.28" y="0">YLE RORKE</tspan></text>
    </g>
  </g>
</svg>