<svg width="28" height="28" viewBox="0 0 28 28" fill="none" xmlns="http://www.w3.org/2000/svg">
<path d="M13.9833 0C15.919 0 17.7378 0.367104 19.4398 1.10131C21.1418 1.83552 22.6269 2.83671 23.8951 4.10489C25.1633 5.37306 26.1645 6.8526 26.8987 8.5435C27.6329 10.2344 28 12.0477 28 13.9833C28 15.919 27.6329 17.7378 26.8987 19.4398C26.1645 21.1418 25.1633 22.6269 23.8951 23.8951C22.6269 25.1633 21.1418 26.1645 19.4398 26.8987C17.7378 27.6329 15.919 28 13.9833 28C12.0477 28 10.2344 27.6329 8.5435 26.8987C6.8526 26.1645 5.37306 25.1633 4.10489 23.8951C2.83671 22.6269 1.83552 21.1418 1.10131 19.4398C0.367104 17.7378 0 15.919 0 13.9833C0 12.0477 0.367104 10.2344 1.10131 8.5435C1.83552 6.8526 2.83671 5.37306 4.10489 4.10489C5.37306 2.83671 6.8526 1.83552 8.5435 1.10131C10.2344 0.367104 12.0477 0 13.9833 0ZM19.2563 6.10727H16.2861C15.7076 6.10727 15.1736 6.20739 14.6841 6.40763C14.1947 6.60787 13.7664 6.87485 13.3993 7.20858C13.0322 7.54231 12.7485 7.92054 12.5483 8.34327C12.348 8.76599 12.2479 9.18872 12.2479 9.61144V11.3802H9.61144V14.851H12.2479V21.8594H15.7521V14.851H18.3552V11.3802H15.7521V10.4791C15.7521 10.2122 15.8578 10.0008 16.0691 9.84505C16.2805 9.68931 16.464 9.61144 16.6198 9.61144H19.2563V6.10727Z" fill="#2D2C33"/>
</svg>
